<svg width="500" height="500" viewBox="0 0 500 500" fill="none" xmlns="http://www.w3.org/2000/svg">
<rect width="500" height="500" fill="white"/>
<path d="M249.975 219.696C266.705 219.696 280.264 233.252 280.264 249.976C280.264 266.705 266.705 280.264 249.975 280.264C233.251 280.264 219.692 266.7 219.692 249.976C219.692 233.252 233.251 219.696 249.975 219.696V219.696ZM146.786 249.976C146.786 192.986 192.986 146.787 249.975 146.787C306.973 146.787 353.168 192.986 353.168 249.976C353.168 253.749 352.967 257.47 352.572 261.131C351.789 271.191 359.171 278.87 369.166 278.87C386.13 278.87 387.937 256.997 387.937 249.976C387.937 173.779 326.171 112.015 249.975 112.015C173.779 112.015 112.015 173.78 112.015 249.976C112.015 326.168 173.779 387.935 249.974 387.935C290.44 387.935 326.837 370.524 352.075 342.776L380.436 366.592C348.4 402.404 301.819 424.961 249.975 424.961C153.338 424.961 75 346.615 75 249.976C75 153.338 153.338 75 249.975 75C346.617 75 424.955 153.338 424.955 249.978C424.955 288.821 406.46 320.365 369.31 320.365C352.96 320.365 343.022 312.874 337.595 304.513C319.373 333.724 286.95 353.174 249.975 353.174C192.984 353.174 146.786 306.967 146.786 249.978V249.976ZM249.975 183.799C213.429 183.799 183.798 213.427 183.798 249.976C183.798 286.526 213.429 316.156 249.975 316.156C286.523 316.156 316.156 286.526 316.156 249.976C316.156 213.427 286.523 183.799 249.975 183.799Z" fill="#AF252A"/>
</svg>
